<svg width="40" height="40" viewBox="0 0 40 40" fill="none" xmlns="http://www.w3.org/2000/svg">
<path d="M12.5225 15.625H6.875C3.42875 15.625 0.625 18.4288 0.625 21.875C0.625 25.3212 3.42875 28.125 6.875 28.125H13.3694L12.5225 15.625Z" fill="#96D659"/>
<path d="M32.5 36.25H38.75V32.5H32.5C31.8094 32.5 31.25 33.0594 31.25 33.75V35C31.25 35.6906 31.8094 36.25 32.5 36.25Z" fill="#96D659"/>
<path d="M6.875 25.625C8.94312 25.625 10.625 23.9431 10.625 21.875C10.625 19.8069 8.94312 18.125 6.875 18.125C4.80687 18.125 3.125 19.8069 3.125 21.875C3.125 23.9431 4.80687 25.625 6.875 25.625ZM6.875 19.375C8.25375 19.375 9.375 20.4962 9.375 21.875C9.375 23.2537 8.25375 24.375 6.875 24.375C5.49625 24.375 4.375 23.2537 4.375 21.875C4.375 20.4962 5.49625 19.375 6.875 19.375Z" fill="#333333"/>
<path d="M36.875 25.625V21.875H34.375V19.375H37.5V17.5C37.5 14.6244 35.33 12.25 32.5419 11.9181C32.2638 11.7013 31.96 11.525 31.6488 11.4225L26.2056 9.24563C26.2319 9.0825 26.25 8.9175 26.25 8.75C26.25 7.42 25.4112 6.28937 24.2375 5.83875C22.5669 2.62062 19.2956 0.625 15.66 0.625H15.1594C13.7369 0.625 12.305 0.946875 11.0194 1.55563L9.17 2.43187L6.61687 1.41062C6.29562 1.30312 5.9625 1.24937 5.625 1.24937C4.27937 1.24937 3.08875 2.10812 2.66187 3.38562C2.40937 4.14125 2.46188 4.94563 2.79063 5.66688C1.42875 6.79563 0.625 8.47062 0.625 10.2612C0.625 12.2637 1.62 14.1225 3.28625 15.2338L4.30813 15.915L4.28813 16.1925C4.69562 16.0063 5.12375 15.8594 5.57188 15.7638L6.13125 7.93813L11.5219 10.0944L13.0813 33.125H4.4125L4.72813 27.7369C4.29875 27.5788 3.89125 27.3775 3.51187 27.1344L3.1575 33.185C1.71687 33.4631 0.625 34.73 0.625 36.25V39.375H16.875V36.25C16.875 34.7281 15.7806 33.4606 14.3381 33.1844L12.8094 10.6094L26.4431 16.0625C26.3212 16.5225 26.25 17.0025 26.25 17.5V19.375H29.375V21.875H20.625V25.625H18.125V30.625H25.625V33.125H19.375V39.375H39.375V30.625V30V25.625H36.875ZM15.625 36.25V38.125H1.875V36.25C1.875 35.2163 2.71625 34.375 3.75 34.375H13.75C14.7837 34.375 15.625 35.2163 15.625 36.25ZM35.625 25.625H33.125V23.125H35.625V25.625ZM25.625 25.625V23.125H28.125V25.625H25.625ZM29.375 23.125H31.875V25.625H29.375V23.125ZM25 8.75C25 8.75438 24.9988 8.75813 24.9988 8.7625L21.7619 7.46813C22.11 7.09813 22.5975 6.875 23.125 6.875C24.1588 6.875 25 7.71625 25 8.75ZM11.5544 2.68563C12.6737 2.155 13.92 1.875 15.1587 1.875H15.6594C18.5294 1.875 21.1369 3.30375 22.6838 5.6575C21.8156 5.78062 21.0469 6.26625 20.5538 6.985L10.7531 3.065L11.5544 2.68563ZM3.8475 3.78125C4.10375 3.01438 4.8175 2.49938 5.625 2.49938C5.8275 2.49938 6.02812 2.53188 6.18625 2.58438L16.3481 6.64875L14.7975 10.0594L5.03313 6.15375C4.5575 5.995 4.1725 5.66125 3.94875 5.21312C3.725 4.765 3.68875 4.25625 3.8475 3.78125ZM4.41062 14.4806L3.98 14.1931C2.66188 13.315 1.875 11.845 1.875 10.2612C1.875 8.87375 2.4825 7.57125 3.52062 6.67938C3.835 6.96813 4.20062 7.19312 4.60312 7.32687L4.9125 7.45062L4.41062 14.4806ZM15.96 10.5237L17.5106 7.11312L30.1244 12.1581C28.7256 12.6175 27.5687 13.6106 26.8937 14.8969L15.96 10.5237ZM27.5 17.5C27.5 15.0875 29.4625 13.125 31.875 13.125C34.2875 13.125 36.25 15.0875 36.25 17.5V18.125H27.5V17.5ZM30.625 19.375H33.125V21.875H30.625V19.375ZM21.875 23.125H24.375V25.625H21.875V23.125ZM19.375 26.875H38.125V29.375H19.375V26.875ZM38.125 38.125H20.625V34.375H26.875V30.625H38.125V38.125Z" fill="#333333"/>
<path d="M24.375 35.625H25.625V36.875H24.375V35.625Z" fill="#333333"/>
<path d="M21.875 35.625H23.125V36.875H21.875V35.625Z" fill="#333333"/>
<path d="M26.875 35.625H28.125V36.875H26.875V35.625Z" fill="#333333"/>
<path d="M10.0347 6.80527L10.4985 5.64383L11.6593 6.10743L11.1955 7.26886L10.0347 6.80527Z" fill="#333333"/>
<path d="M5.39258 4.95155L5.8564 3.79012L7.01725 4.25371L6.55343 5.41515L5.39258 4.95155Z" fill="#333333"/>
<path d="M7.71582 5.88936L8.18092 4.72911L9.34117 5.19421L8.87607 6.35446L7.71582 5.88936Z" fill="#333333"/>
</svg>
