<svg width="40" height="40" viewBox="0 0 40 40" fill="none" xmlns="http://www.w3.org/2000/svg">
<g clip-path="url(#clip0)">
<path d="M16.1291 31.124V39.5111H10.9678V31.124L13.5484 28.5434L16.1291 31.124Z" fill="#96D659"/>
<path d="M20.4556 5.47303C19.1266 3.3827 16.7866 2.09174 14.3027 2.09174H13.5485C8.21238 2.09174 3.87109 6.43303 3.87109 11.7692V16.9304H4.51625C4.51625 15.5053 5.67174 14.3498 7.0969 14.3498V14.5904C7.0969 12.6763 8.64916 11.124 10.5634 11.124C11.2479 11.124 11.9169 11.3266 12.4859 11.7059L13.5485 12.4143L14.6104 11.7059C15.1801 11.3266 15.8492 11.124 16.533 11.124C18.4479 11.124 20.0001 12.6763 20.0001 14.5904V14.3498C21.4253 14.3498 22.5808 15.5053 22.5808 16.9304H23.2259V10.1382C23.2259 8.17561 22.1692 6.40528 20.4556 5.47303Z" fill="#96D659"/>
<path d="M40 16.795V10.6143L37.4594 10.0104C37.2884 9.49948 37.0839 9.00399 36.849 8.53109L38.2174 6.31044L33.8465 1.93948L31.6258 3.30722C31.1523 3.07173 30.6574 2.86786 30.1465 2.6969L29.5419 0.15625H23.3613L22.7574 2.6969C22.2465 2.86786 21.751 3.07238 21.2781 3.30722L19.0574 1.93883L17.9258 3.0698C18.3045 3.28722 18.66 3.54335 18.9948 3.82528L19.2484 3.57173L21.2284 4.79238L21.5561 4.6156C22.1594 4.29044 22.8084 4.0227 23.4858 3.81948L23.8419 3.71238L24.3806 1.44657H28.5226L29.0613 3.71302L29.4174 3.82012C30.0942 4.0227 30.7439 4.29044 31.3471 4.61625L31.6748 4.79302L33.6548 3.57302L36.5839 6.50206L35.3639 8.48206L35.5406 8.8098C35.8658 9.41302 36.1335 10.0621 36.3368 10.7395L36.4439 11.0956L38.7097 11.6337V15.7756L36.4432 16.3143L36.3361 16.6704C36.1335 17.3472 35.8658 17.9969 35.54 18.6001L35.3632 18.9279L36.5832 20.9079L33.6542 23.8369L31.6742 22.6169L31.3465 22.7937C30.7439 23.1188 30.0948 23.3866 29.4174 23.5898L29.0613 23.6969L28.5226 25.9627H24.3806L23.8419 23.6962L23.4858 23.5892C22.8084 23.3859 22.1587 23.1182 21.5568 22.793L21.229 22.6162L19.249 23.8362L18.6052 23.1924C19.3884 22.3962 19.9871 21.4188 20.3271 20.3272C21.9987 21.8788 24.149 22.7369 26.4516 22.7369C31.4323 22.7369 35.4839 18.6853 35.4839 13.7046C35.4839 8.72399 31.4323 4.67238 26.4516 4.67238C24.6503 4.67238 22.9355 5.1969 21.4535 6.18657C21.7806 6.47819 22.0652 6.80593 22.3077 7.16399C23.5445 6.37625 24.9645 5.9627 26.4516 5.9627C30.7206 5.9627 34.1935 9.4356 34.1935 13.7046C34.1935 17.9737 30.7206 21.4466 26.4516 21.4466C24.6523 21.4466 22.96 20.8363 21.5877 19.7214C22.5606 19.1653 23.2258 18.1292 23.2258 16.9304C23.2258 15.344 22.0723 14.0285 20.5613 13.7614C20.1761 11.8904 18.5168 10.4788 16.5335 10.4788C15.7187 10.4788 14.9303 10.7175 14.2529 11.1692L13.5484 11.6388L12.8439 11.1692C12.1665 10.7175 11.3781 10.4788 10.5632 10.4788C8.58 10.4788 6.92 11.8904 6.53548 13.7614C5.02452 14.0285 3.87097 15.344 3.87097 16.9304C3.87097 18.5788 5.11871 19.9272 6.71677 20.1175C7.18387 21.7982 8.25161 23.2285 9.67742 24.1608V25.4975L3.08774 27.6943C1.24065 28.3098 0 30.0317 0 31.9788V40.1562H27.0968V31.9788C27.0968 30.0317 25.8561 28.3098 24.009 27.6943L17.4194 25.4975V24.1608C17.4852 24.1175 17.5503 24.073 17.6148 24.0279L19.0568 25.4698L21.2774 24.1014C21.7503 24.3369 22.2458 24.5408 22.7568 24.7117L23.3613 27.253H29.5419L30.1458 24.7124C30.6568 24.5414 31.1523 24.3369 31.6252 24.1021L33.8458 25.4704L38.2168 21.0995L36.8484 18.8788C37.0839 18.4053 37.2877 17.9104 37.4587 17.3995L40 16.795ZM21.9355 16.9304C21.9355 17.7801 21.3813 18.4963 20.6181 18.7556C20.6316 18.5782 20.6452 18.4014 20.6452 18.2208V15.1137C21.3942 15.3808 21.9355 16.0904 21.9355 16.9304ZM5.16129 16.9304C5.16129 16.0904 5.70258 15.3808 6.45161 15.1137V18.2208C6.45161 18.4014 6.46516 18.5782 6.47871 18.7556C5.71548 18.4963 5.16129 17.7801 5.16129 16.9304ZM7.74194 18.2208V14.5904C7.74194 13.035 9.00774 11.7692 10.5632 11.7692C11.1226 11.7692 11.6632 11.933 12.1284 12.2427L13.5484 13.1898L14.9684 12.2433C15.4335 11.933 15.9742 11.7692 16.5335 11.7692C18.089 11.7692 19.3548 13.035 19.3548 14.5904V18.2208C19.3548 21.4221 16.7497 24.0272 13.5484 24.0272C10.3471 24.0272 7.74194 21.4221 7.74194 18.2208ZM10.1935 26.6859L12.5826 28.5969L9.31419 31.8653L7.84839 27.4672L10.1935 26.6859ZM25.8064 31.9788V38.8659H22.5806V33.7046H21.2903V38.8659H5.80645V33.7046H4.51613V38.8659H1.29032V31.9788C1.29032 30.5879 2.17677 29.3582 3.49613 28.9182L6.62452 27.8756L8.75097 34.2537L13.5484 29.4556L18.3465 34.2537L20.4729 27.8756L23.6013 28.9182C24.92 29.3582 25.8064 30.5879 25.8064 31.9788ZM19.2484 27.4672L17.7826 31.8653L14.5142 28.5969L16.9032 26.6859L19.2484 27.4672ZM16.129 25.653L13.5484 27.7175L10.9677 25.653V24.8246C11.769 25.1388 12.6374 25.3175 13.5484 25.3175C14.4594 25.3175 15.3277 25.1388 16.129 24.8246V25.653Z" fill="black"/>
<path d="M16.7741 16.2853C17.1304 16.2853 17.4192 15.9964 17.4192 15.6401C17.4192 15.2838 17.1304 14.9949 16.7741 14.9949C16.4178 14.9949 16.1289 15.2838 16.1289 15.6401C16.1289 15.9964 16.4178 16.2853 16.7741 16.2853Z" fill="black"/>
<path d="M10.3229 16.2853C10.6792 16.2853 10.9681 15.9964 10.9681 15.6401C10.9681 15.2838 10.6792 14.9949 10.3229 14.9949C9.96658 14.9949 9.67773 15.2838 9.67773 15.6401C9.67773 15.9964 9.96658 16.2853 10.3229 16.2853Z" fill="black"/>
<path d="M16.1291 19.5111H14.8387C14.8387 20.2227 14.26 20.8014 13.5484 20.8014C12.8368 20.8014 12.2581 20.2227 12.2581 19.5111H10.9678C10.9678 20.9343 12.1252 22.0917 13.5484 22.0917C14.9716 22.0917 16.1291 20.9343 16.1291 19.5111Z" fill="black"/>
<path d="M14.1936 31.124H12.9033V32.4143H14.1936V31.124Z" fill="black"/>
<path d="M14.1936 33.7046H12.9033V34.9949H14.1936V33.7046Z" fill="black"/>
<path d="M14.1936 36.2853H12.9033V37.5756H14.1936V36.2853Z" fill="black"/>
<path d="M29.6779 7.89818H24.5166V9.1885H29.6779V7.89818Z" fill="black"/>
<path d="M31.6134 10.4788H24.5166V11.7692H31.6134V10.4788Z" fill="black"/>
<path d="M32.9037 13.0595H24.5166V14.3498H32.9037V13.0595Z" fill="black"/>
<path d="M31.6134 15.6401H24.5166V16.9304H31.6134V15.6401Z" fill="black"/>
<path d="M29.6779 18.2208H24.5166V19.5111H29.6779V18.2208Z" fill="black"/>
</g>
<defs>
<clipPath id="clip0">
<rect width="40" height="40" fill="white"/>
</clipPath>
</defs>
</svg>
