<svg width="40" height="40" viewBox="0 0 40 40" fill="none" xmlns="http://www.w3.org/2000/svg">
<path d="M36.7551 27.3548L38.6968 31.0128C38.9161 31.4324 39.1032 31.8838 39.2065 32.3485C40.0451 36.0645 37.2389 39.3548 33.671 39.3548H25.684C22.1161 39.3548 19.3099 36.0645 20.1484 32.3485C20.2518 31.8838 20.4389 31.4324 20.6581 31.0128L22.2774 27.9612C22.6645 28.1937 23.1226 28.3871 23.871 28.3871C25.8065 28.3871 25.8065 27.0968 27.7357 27.0968C29.6712 27.0968 29.6712 28.3871 31.6067 28.3871C33.5422 28.3871 33.5422 27.0968 35.4839 27.0968C36.0324 27.0968 36.4325 27.2001 36.7551 27.3548Z" fill="#96D659"/>
<path d="M12.903 24.5162C12.903 24.1614 12.6126 23.871 12.2578 23.871C11.9031 23.871 11.6127 24.1614 11.6127 24.5162C11.6127 24.8709 11.9031 25.1613 12.2578 25.1613C12.6126 25.1613 12.903 24.8709 12.903 24.5162ZM3.22559 33.5484V16.7742C5.16107 16.7742 5.16107 18.0645 7.09655 18.0645C9.03204 18.0645 9.03204 16.7742 10.9675 16.7742C12.903 16.7742 12.903 18.0645 14.8385 18.0645V33.5484C14.8385 35.1484 14.187 36.6066 13.1352 37.6516C12.0903 38.7034 10.632 39.3549 9.03204 39.3549C5.82545 39.3549 3.22559 36.755 3.22559 33.5484ZM5.80623 28.3871C5.45152 28.3871 5.16107 28.6776 5.16107 29.0323C5.16107 29.387 5.45152 29.6774 5.80623 29.6774C6.16094 29.6774 6.45139 29.387 6.45139 29.0323C6.45139 28.6776 6.16094 28.3871 5.80623 28.3871ZM7.09655 27.0968C7.45127 27.0968 7.74172 26.8063 7.74172 26.4516C7.74172 26.0969 7.45127 25.8065 7.09655 25.8065C6.74184 25.8065 6.45139 26.0969 6.45139 26.4516C6.45139 26.8063 6.74184 27.0968 7.09655 27.0968ZM9.03204 27.742C9.03204 28.0967 9.32249 28.3871 9.6772 28.3871C10.0319 28.3871 10.3224 28.0967 10.3224 27.742C10.3224 27.3872 10.0319 27.0968 9.6772 27.0968C9.32249 27.0968 9.03204 27.3872 9.03204 27.742ZM12.2578 30.9678C12.2578 30.6131 11.9674 30.3226 11.6127 30.3226C11.258 30.3226 10.9675 30.6131 10.9675 30.9678C10.9675 31.3225 11.258 31.6129 11.6127 31.6129C11.9674 31.6129 12.2578 31.3225 12.2578 30.9678ZM9.03204 30.9678C9.03204 30.6131 8.74159 30.3226 8.38688 30.3226C8.03216 30.3226 7.74172 30.6131 7.74172 30.9678C7.74172 31.3225 8.03216 31.6129 8.38688 31.6129C8.74159 31.6129 9.03204 31.3225 9.03204 30.9678Z" fill="#96D659"/>
<path d="M39.8353 32.2064C39.7263 31.7219 39.5339 31.2182 39.2642 30.7085L34.1933 21.1303V11.6129C35.6166 11.6129 36.774 10.4556 36.774 9.03229C36.774 7.60903 35.6166 6.45164 34.1933 6.45164H25.1611C23.7378 6.45164 22.5804 7.60903 22.5804 9.03229C22.5804 10.4556 23.7378 11.6129 25.1611 11.6129V21.1303L20.0902 30.7085C19.8205 31.2182 19.6287 31.7219 19.5191 32.2064C19.085 34.1356 19.5295 36.1092 20.7385 37.6213C21.9476 39.1337 23.7507 40 25.685 40H33.6701C35.6043 40 37.4068 39.1328 38.6159 37.6207C39.8249 36.1083 40.2694 34.1356 39.8353 32.2064ZM37.6075 36.8149C36.6448 38.0195 35.2096 38.7097 33.6694 38.7097H25.685C24.1448 38.7097 22.7102 38.0195 21.7469 36.8149C20.7836 35.6102 20.4307 34.0336 20.7785 32.4896C20.8623 32.116 21.0148 31.72 21.2309 31.3118L26.1947 21.9355H30.3224V20.6452H26.4514V19.3549H29.032V18.0645H26.4514V16.7742H30.3224V15.4839H26.4514V14.1936H29.032V12.9033H26.4514V10.3226H25.1611C24.4494 10.3226 23.8708 9.74392 23.8708 9.03229C23.8708 8.32066 24.4494 7.74197 25.1611 7.74197H34.1933C34.905 7.74197 35.4836 8.32066 35.4836 9.03229C35.4836 9.74392 34.905 10.3226 34.1933 10.3226H29.032V11.6129H32.903V21.4504L38.1235 31.3118C38.3396 31.72 38.4921 32.116 38.5759 32.4896C38.9243 34.0342 38.5715 35.6102 37.6075 36.8149Z" fill="#333333"/>
<path d="M34.8388 30.3226C33.7718 30.3226 32.9033 31.1911 32.9033 32.2581C32.9033 33.325 33.7718 34.1935 34.8388 34.1935C35.9058 34.1935 36.7743 33.325 36.7743 32.2581C36.7743 31.1911 35.9058 30.3226 34.8388 30.3226ZM34.8388 32.9032C34.4835 32.9032 34.1936 32.614 34.1936 32.2581C34.1936 31.9021 34.4835 31.6129 34.8388 31.6129C35.1941 31.6129 35.484 31.9021 35.484 32.2581C35.484 32.614 35.1941 32.9032 34.8388 32.9032Z" fill="#333333"/>
<path d="M32.2577 5.16131C33.3247 5.16131 34.1932 4.2928 34.1932 3.22583C34.1932 2.15885 33.3247 1.29034 32.2577 1.29034C31.1908 1.29034 30.3223 2.15885 30.3223 3.22583C30.3223 4.2928 31.1908 5.16131 32.2577 5.16131ZM32.2577 2.58067C32.6131 2.58067 32.9029 2.87049 32.9029 3.22583C32.9029 3.58117 32.6131 3.87099 32.2577 3.87099C31.9024 3.87099 31.6126 3.58117 31.6126 3.22583C31.6126 2.87049 31.9024 2.58067 32.2577 2.58067Z" fill="#333333"/>
<path d="M25.8066 3.87097C26.8736 3.87097 27.7421 3.00246 27.7421 1.93548C27.7421 0.868511 26.8736 0 25.8066 0C24.7396 0 23.8711 0.868511 23.8711 1.93548C23.8711 3.00246 24.7396 3.87097 25.8066 3.87097ZM25.8066 1.29032C26.1619 1.29032 26.4517 1.58014 26.4517 1.93548C26.4517 2.29083 26.1619 2.58065 25.8066 2.58065C25.4512 2.58065 25.1614 2.29083 25.1614 1.93548C25.1614 1.58014 25.4512 1.29032 25.8066 1.29032Z" fill="#333333"/>
<path d="M30.3222 33.5484C29.2552 33.5484 28.3867 34.4169 28.3867 35.4839C28.3867 36.5508 29.2552 37.4193 30.3222 37.4193C31.3892 37.4193 32.2577 36.5508 32.2577 35.4839C32.2577 34.4169 31.3892 33.5484 30.3222 33.5484ZM30.3222 36.129C29.9669 36.129 29.677 35.8398 29.677 35.4839C29.677 35.1279 29.9669 34.8387 30.3222 34.8387C30.6775 34.8387 30.9674 35.1279 30.9674 35.4839C30.9674 35.8398 30.6775 36.129 30.3222 36.129Z" fill="#333333"/>
<path d="M23.871 32.9032C22.8041 32.9032 21.9355 33.7717 21.9355 34.8387C21.9355 35.9057 22.8041 36.7742 23.871 36.7742C24.938 36.7742 25.8065 35.9057 25.8065 34.8387C25.8065 33.7717 24.938 32.9032 23.871 32.9032ZM23.871 35.4839C23.5157 35.4839 23.2259 35.1947 23.2259 34.8387C23.2259 34.4827 23.5157 34.1936 23.871 34.1936C24.2264 34.1936 24.5162 34.4827 24.5162 34.8387C24.5162 35.1947 24.2264 35.4839 23.871 35.4839Z" fill="#333333"/>
<path d="M8.38666 33.5484C7.31968 33.5484 6.45117 34.4169 6.45117 35.4839C6.45117 36.5508 7.31968 37.4193 8.38666 37.4193C9.45363 37.4193 10.3221 36.5508 10.3221 35.4839C10.3221 34.4169 9.45363 33.5484 8.38666 33.5484ZM8.38666 36.129C8.03131 36.129 7.74149 35.8398 7.74149 35.4839C7.74149 35.1279 8.03131 34.8387 8.38666 34.8387C8.742 34.8387 9.03182 35.1279 9.03182 35.4839C9.03182 35.8398 8.742 36.129 8.38666 36.129Z" fill="#333333"/>
<path d="M29.6776 30.9677C29.6776 29.9008 28.8091 29.0323 27.7421 29.0323C26.6752 29.0323 25.8066 29.9008 25.8066 30.9677C25.8066 32.0347 26.6752 32.9032 27.7421 32.9032C28.8091 32.9032 29.6776 32.0347 29.6776 30.9677ZM27.7421 31.6129C27.3868 31.6129 27.097 31.3237 27.097 30.9677C27.097 30.6118 27.3868 30.3226 27.7421 30.3226C28.0975 30.3226 28.3873 30.6118 28.3873 30.9677C28.3873 31.3237 28.0975 31.6129 27.7421 31.6129Z" fill="#333333"/>
<path d="M15.4839 6.45164H2.58065C1.15738 6.45164 0 7.60903 0 9.03229C0 10.4556 1.15738 11.6129 2.58065 11.6129V33.5484C2.58065 37.1059 5.47474 40 9.03226 40C12.5898 40 15.4839 37.1059 15.4839 33.5484V11.6129C16.9071 11.6129 18.0645 10.4556 18.0645 9.03229C18.0645 7.60903 16.9071 6.45164 15.4839 6.45164ZM15.4839 10.3226H14.1935V33.5484C14.1935 36.3943 11.8781 38.7097 9.03226 38.7097C6.18637 38.7097 3.87097 36.3943 3.87097 33.5484V11.6129H11.6129V10.3226H2.58065C1.86901 10.3226 1.29032 9.74392 1.29032 9.03229C1.29032 8.32066 1.86901 7.74197 2.58065 7.74197H15.4839C16.1955 7.74197 16.7742 8.32066 16.7742 9.03229C16.7742 9.74392 16.1955 10.3226 15.4839 10.3226Z" fill="#333333"/>
<path d="M12.2581 30.9677C12.2581 31.324 11.9692 31.6129 11.6129 31.6129C11.2566 31.6129 10.9678 31.324 10.9678 30.9677C10.9678 30.6114 11.2566 30.3226 11.6129 30.3226C11.9692 30.3226 12.2581 30.6114 12.2581 30.9677Z" fill="#333333"/>
<path d="M6.45146 29.0322C6.45146 29.3885 6.16258 29.6774 5.80629 29.6774C5.45001 29.6774 5.16113 29.3885 5.16113 29.0322C5.16113 28.676 5.45001 28.3871 5.80629 28.3871C6.16258 28.3871 6.45146 28.676 6.45146 29.0322Z" fill="#333333"/>
<path d="M10.3225 27.7419C10.3225 28.0982 10.0337 28.3871 9.67739 28.3871C9.3211 28.3871 9.03223 28.0982 9.03223 27.7419C9.03223 27.3856 9.3211 27.0968 9.67739 27.0968C10.0337 27.0968 10.3225 27.3856 10.3225 27.7419Z" fill="#333333"/>
<path d="M9.03251 30.9677C9.03251 31.324 8.74364 31.6129 8.38735 31.6129C8.03106 31.6129 7.74219 31.324 7.74219 30.9677C7.74219 30.6114 8.03106 30.3226 8.38735 30.3226C8.74364 30.3226 9.03251 30.6114 9.03251 30.9677Z" fill="#333333"/>
<path d="M12.9036 24.5161C12.9036 24.8724 12.6147 25.1613 12.2584 25.1613C11.9022 25.1613 11.6133 24.8724 11.6133 24.5161C11.6133 24.1599 11.9022 23.871 12.2584 23.871C12.6147 23.871 12.9036 24.1599 12.9036 24.5161Z" fill="#333333"/>
<path d="M7.74149 26.4516C7.74149 26.8079 7.45262 27.0968 7.09633 27.0968C6.74005 27.0968 6.45117 26.8079 6.45117 26.4516C6.45117 26.0953 6.74005 25.8064 7.09633 25.8064C7.45262 25.8064 7.74149 26.0953 7.74149 26.4516Z" fill="#333333"/>
</svg>
