<svg width="40" height="40" viewBox="0 0 40 40" fill="none" xmlns="http://www.w3.org/2000/svg">
<path d="M14.2349 12.2581C15.6501 12.2581 16.7974 11.1027 16.7974 9.67742C16.7974 8.25217 15.6501 7.09677 14.2349 7.09677C12.8196 7.09677 11.6724 8.25217 11.6724 9.67742C11.6724 11.1027 12.8196 12.2581 14.2349 12.2581Z" fill="#96D659"/>
<path d="M18.0781 7.74193H27.6875V13.5484H18.0781V7.74193Z" fill="#96D659"/>
<path d="M21.9219 0H18.0781C12.0729 0 7.1875 4.92 7.1875 10.9677C7.1875 14.9523 9.34192 18.629 12.809 20.5645L12.9531 20.6445V24.5161H14.2344V40H15.5156V24.5161H16.7969V20.6452H23.2031V24.5161H24.4844V40H25.7656V24.5161H27.0469V20.6445L27.191 20.5645C30.6581 18.629 32.8125 14.9523 32.8125 10.9677C32.8125 4.92 27.9271 0 21.9219 0ZM15.5156 23.2258H14.2344V20.6452H15.5156V23.2258ZM24.4844 23.2258V20.6452H25.7656V23.2258H24.4844ZM26.7118 19.3548H13.2882C10.3112 17.6271 8.46875 14.4284 8.46875 10.9677C8.46875 5.63161 12.7795 1.29032 18.0781 1.29032H21.9219C27.2205 1.29032 31.5312 5.63161 31.5312 10.9677C31.5312 14.4284 29.6888 17.6271 26.7118 19.3548Z" fill="#333333"/>
<path d="M14.2349 7.09677C12.8216 7.09677 11.6724 8.25419 11.6724 9.67742C11.6724 11.1006 12.8216 12.2581 14.2349 12.2581V10.9677C13.5283 10.9677 12.9536 10.389 12.9536 9.67742C12.9536 8.9658 13.5283 8.38709 14.2349 8.38709C14.9415 8.38709 15.5161 8.9658 15.5161 9.67742H16.7974C16.7974 8.25419 15.6481 7.09677 14.2349 7.09677Z" fill="#333333"/>
<path d="M18.0781 7.09677H27.6875V8.38709H18.0781V7.09677Z" fill="#333333"/>
<path d="M18.0781 9.67741H27.6875V10.9677H18.0781V9.67741Z" fill="#333333"/>
<path d="M26.4062 12.2581H27.6875V13.5484H26.4062V12.2581Z" fill="#333333"/>
<path d="M20.6406 12.2581H25.125V13.5484H20.6406V12.2581Z" fill="#333333"/>
<path d="M18.0781 12.2581H19.3594V13.5484H18.0781V12.2581Z" fill="#333333"/>
</svg>
