<svg width="214" height="104" viewBox="0 0 214 104" fill="none" xmlns="http://www.w3.org/2000/svg">
<path d="M67.1562 67.1621H80.4172V71.4143H74.1088V101.291H67.1562V67.1621Z" fill="white"/>
<path d="M88.2785 88.4789L89.4701 71.4143H89.8692L91.0607 88.4789H88.2785ZM80.5791 101.291H87.3863L88.0306 92.2275H91.3087L91.9558 101.291H98.7602L95.1342 67.1621H84.2051L80.5791 101.291Z" fill="white"/>
<path d="M108.718 89.3461V95.7803C108.718 96.6476 109.402 96.8993 109.801 96.8993C110.457 96.8993 110.913 96.3678 110.913 95.7803V87.8355C110.913 86.7725 110.713 85.5975 108.119 85.5975H105.297V81.8489H108.233C110.2 81.8489 110.913 81.4013 110.913 79.3032V72.5333C110.913 71.9458 110.457 71.4143 109.801 71.4143C109.402 71.4143 108.718 71.6381 108.718 72.5333V78.1003H101.762V73.2606C101.762 70.8828 102.047 67.1621 106.922 67.1621H112.68C117.555 67.1621 117.868 70.8828 117.868 73.2606V78.7157C117.868 82.4363 115.217 83.4434 113.136 83.3595V83.6952C117.811 83.5833 117.868 87.1082 117.868 88.3111V95.1929C117.868 97.5987 117.555 101.291 112.68 101.291H106.922C102.047 101.291 101.762 97.5987 101.762 95.1929V89.3461H108.718Z" fill="white"/>
<path d="M122.429 67.1621H138.535V101.291H131.58V71.4143H129.385V101.291H122.429V67.1621Z" fill="white"/>
<path d="M150.051 85.9332V71.4143H150.963C151.704 71.4143 152.246 72.0297 152.246 73.1207V84.2268C152.246 85.3178 151.704 85.9332 150.963 85.9332H150.051ZM143.096 101.291H150.051V89.6818H154.042C158.888 89.6818 159.201 85.9892 159.201 83.5833V73.2606C159.201 70.8828 158.888 67.1621 154.042 67.1621H143.096V101.291Z" fill="white"/>
<path d="M172.913 95.7803C172.913 96.3678 172.457 96.8993 171.801 96.8993C171.402 96.8993 170.718 96.6476 170.718 95.7803V72.5333C170.718 71.6381 171.402 71.4143 171.801 71.4143C172.457 71.4143 172.913 71.9458 172.913 72.5333V95.7803ZM163.763 95.1929C163.763 97.5987 164.076 101.291 168.922 101.291H174.709C179.555 101.291 179.869 97.5987 179.869 95.1929V73.2606C179.869 70.8828 179.555 67.1621 174.709 67.1621H168.922C164.076 67.1621 163.763 70.8828 163.763 73.2606V95.1929Z" fill="white"/>
<path d="M202.502 67.1621H211.567V101.291H204.612V79.8907H204.355L200.764 101.291H195.205L191.642 79.8907H191.385V101.291H184.43V67.1621H193.466L197.999 91.1645L202.502 67.1621Z" fill="white"/>
<path d="M58.1422 20.5003C56.0128 11.3526 50.6765 3.91129 49.941 2.70837C48.778 4.41484 44.522 10.9889 42.3584 18.2624C39.9953 26.403 39.6475 33.6205 40.4628 40.6982C41.2723 47.8037 44.331 55.1052 44.331 55.1052C45.9559 58.9098 48.3903 63.0221 49.9752 65.0363C52.2985 62.0709 57.6376 53.2309 59.3024 41.7053C60.2288 35.2711 60.2687 29.6481 58.1422 20.5003ZM49.941 62.7423C48.8949 60.8121 47.27 57.1474 47.1161 51.4405C47.0762 45.9574 49.3196 41.2297 49.9752 40.2506C50.5596 41.2297 52.4923 45.342 52.7232 50.9649C52.88 56.448 51.0214 60.7841 49.941 62.7423ZM57.5236 36.0264C57.4438 39.5232 57.0191 43.2159 56.4774 45.4259C56.6713 41.6213 56.2066 36.2781 55.3173 32.0819C54.4279 27.9137 51.9108 20.92 49.9011 17.7029C48.0454 20.7801 45.7592 26.8226 44.5619 32.0539C43.359 37.2852 43.3248 43.6355 43.3248 45.5378C43.0055 43.9432 42.2073 38.2084 42.4325 32.4736C42.6207 27.7458 43.7495 22.8502 44.3681 20.6123C46.7284 13.143 49.3994 8.35928 49.9011 7.60395C50.4028 8.35928 53.7665 14.262 55.5111 20.4444C57.2471 26.6268 57.5977 32.5575 57.5236 36.0264Z" fill="white"/>
<path d="M53.5529 67.1623H37.3643V77.8207C37.3786 77.8207 37.39 77.7927 37.4042 77.7927C41.2183 74.0441 47.4041 74.0441 51.2211 77.7927C55.0352 81.5134 55.0352 87.5839 51.2211 91.3325C51.204 91.3605 51.1869 91.3605 51.1698 91.3885C51.1498 91.3885 51.1299 91.4165 51.1128 91.4444C47.3072 95.1371 42.3358 96.9834 37.3643 96.9834C32.3701 96.9834 27.3759 95.1371 23.5675 91.3885C16.8514 84.8144 16.0561 74.6036 21.1758 67.1623C21.8656 66.1552 22.661 65.204 23.5675 64.3089C27.3759 60.5602 32.3701 58.7139 37.3643 58.7139V33.089C18.1741 33.089 2.61841 48.3352 2.61841 67.1623C2.61841 85.9893 18.1741 101.264 37.3643 101.264C47.3699 101.264 56.3835 97.0953 62.7232 90.4653V67.1623H53.5529Z" fill="white"/>
</svg>
