<svg width="153" height="104" viewBox="0 0 153 104" fill="none" xmlns="http://www.w3.org/2000/svg">
<g clip-path="url(#clip0)">
<path d="M58.5043 69.353L58.6313 69.4032C58.6766 69.4184 58.7229 69.4309 58.7698 69.4404C59.275 69.5956 59.8008 69.6765 60.3301 69.6804H87.8404L69.7985 51.9282H69.789C66.4521 55.1825 64.2472 57.324 62.6223 58.9223C61.1795 60.3327 60.1936 61.3039 59.2798 62.2119C58.1308 63.3394 57.363 64.0893 57.3592 64.093C56.7748 64.7185 56.4513 65.5367 56.4529 66.3853C56.4507 67.0251 56.6453 67.6507 57.0113 68.1802C57.3773 68.7097 57.8977 69.1185 58.5043 69.353Z" fill="white"/>
<path d="M56.451 66.4001C56.4494 65.5515 56.7729 64.7333 57.3573 64.1078C57.3573 64.1078 58.1289 63.3636 59.2779 62.2267C60.1917 61.3188 61.1738 60.3475 62.6205 58.9372C64.2453 57.3463 66.4503 55.1973 69.7872 51.9431H69.7966L73.0482 48.7707L73.1127 48.7075C78.5142 43.4382 86.1947 35.9306 97.4757 24.9082L72.7069 0.571289L58.6769 14.3511C54.4849 18.4649 55.0518 21.1554 55.0518 26.6814V64.4874C55.0514 65.5468 55.3814 66.5809 55.9976 67.4507C56.6138 68.3205 57.4866 68.9844 58.4987 69.3529C57.8952 69.1188 57.3773 68.7121 57.0121 68.1855C56.647 67.659 56.4515 67.037 56.451 66.4001Z" fill="white"/>
<path d="M119.45 89.5648H115.322L110.393 94.4583V89.5648H106.902V103.047H110.393V97.4744L115.405 103.047H119.616L113.134 95.8165L119.45 89.5648Z" fill="white"/>
<path d="M8.81915 84.0203H0.0124512V103.047H3.66785V96.4139H8.81915C13.195 96.4139 16.0769 94.2128 16.0769 90.218C16.0769 86.2232 13.195 84.0203 8.81915 84.0203ZM8.71677 93.208H3.66785V87.228H8.71677C11.2649 87.228 12.4271 88.4244 12.4271 90.218C12.4271 92.0116 11.2573 93.208 8.71677 93.208Z" fill="white"/>
<path d="M24.3278 89.1853C20.5606 89.1853 16.8218 91.5762 16.8218 96.3059C16.8218 101.036 20.5606 103.427 24.3278 103.427C28.0951 103.427 31.8339 101.036 31.8339 96.3059C31.8339 91.5762 28.0951 89.1853 24.3278 89.1853ZM24.3278 100.219C22.2783 100.219 20.3672 98.7787 20.3672 96.3115C20.3672 93.8443 22.2783 92.4042 24.3278 92.4042C26.3774 92.4042 28.2885 93.8462 28.2885 96.3115C28.2885 98.7768 26.3774 100.219 24.3278 100.219Z" fill="white"/>
<path d="M40.7431 100.219C38.6386 100.219 37.0877 98.7303 37.0877 96.3115C37.0877 93.8927 38.6935 92.4042 40.7431 92.4042C41.9887 92.4042 43.0694 92.9754 43.9282 94.2537L46.9201 92.568C45.9228 90.4747 43.7614 89.1984 40.7715 89.1984C36.8658 89.1984 33.5422 92.0246 33.5422 96.319C33.5422 100.613 36.699 103.44 40.7715 103.44C43.7064 103.44 45.6725 102.137 47.0585 99.8244L44.1709 98.2633C43.3462 99.4039 42.4646 100.219 40.7431 100.219Z" fill="white"/>
<path d="M77.9 97.2027C77.7331 99.268 77.3179 99.7313 76.5974 99.7313C76.2388 99.7379 75.8814 99.6902 75.5376 99.5899L75.5547 103.079C75.9595 103.176 76.376 103.22 76.7927 103.209C79.7561 103.209 80.8633 101.333 81.1401 97.3385L81.4738 92.6367H85.4061V103.021H88.8965V89.5648H78.4877L77.9 97.2027Z" fill="white"/>
<path d="M68.0013 89.1853C64.0198 89.1853 60.7739 92.0376 60.7739 96.3059C60.7739 100.574 64.0141 103.427 67.8364 103.427C70.8547 103.427 72.7658 102.31 74.1499 100.003L71.3799 98.6428C70.5229 99.7034 69.7475 100.492 67.8913 100.492C65.8418 100.492 64.3459 99.1899 64.1241 97.1209H74.6959V95.9245C74.6959 91.9837 71.9354 89.1853 68.0013 89.1853ZM64.1791 94.5123C64.6777 92.9903 66.0636 91.7939 67.8913 91.7939C69.829 91.7939 71.1315 92.8265 71.4633 94.5123H64.1791Z" fill="white"/>
<path d="M98.0786 89.1853C94.0971 89.1853 90.8494 92.0376 90.8494 96.3059C90.8494 100.574 94.0896 103.427 97.9118 103.427C100.93 103.427 102.841 102.31 104.227 100.003L101.457 98.6428C100.598 99.7034 99.8229 100.492 97.9668 100.492C95.9173 100.492 94.4213 99.1899 94.1995 97.1209H104.781V95.9245C104.781 91.9837 102.011 89.1853 98.0786 89.1853ZM94.2564 94.5123C94.755 92.9903 96.1391 91.7939 97.9668 91.7939C99.9063 91.7939 101.207 92.8265 101.541 94.5123H94.2564Z" fill="white"/>
<path d="M48.1431 92.5549H52.2421V103.047H55.7326V92.5549H59.8316V89.5648H48.1431V92.5549Z" fill="white"/>
<path d="M126.544 89.1853C122.777 89.1853 119.038 91.5762 119.038 96.3059C119.038 101.036 122.777 103.427 126.544 103.427C130.312 103.427 134.05 101.036 134.05 96.3059C134.05 91.5762 130.31 89.1853 126.544 89.1853ZM126.544 100.221C124.495 100.221 122.584 98.7787 122.584 96.3134C122.584 93.848 124.495 92.406 126.544 92.406C128.594 92.406 130.505 93.848 130.505 96.3134C130.505 98.7787 128.594 100.23 126.544 100.23V100.221Z" fill="white"/>
<path d="M147.935 89.5631L144.148 99.0039L140.36 89.5631H135.799V103.021H139.117V94.5012L142.793 103.021H145.502L149.178 94.5012V103.021H152.496V89.5631H147.935Z" fill="white"/>
</g>
<defs>
<clipPath id="clip0">
<rect width="152.484" height="102.857" fill="white" transform="translate(0.0124512 0.571289)"/>
</clipPath>
</defs>
</svg>
