<svg width="197" height="86" viewBox="0 0 197 86" fill="none" xmlns="http://www.w3.org/2000/svg">
<g clip-path="url(#clip0)">
<path d="M139.371 7.74102V10.8637H166.653C168.47 10.8637 171.206 10.8637 173.028 12.6478C174.849 14.4352 174.849 17.1126 174.849 18.9V45.6775C174.849 47.4649 174.849 50.1457 173.028 51.9263C171.206 53.7137 168.47 53.7137 166.653 53.7137H153.467C151.196 53.7137 148.233 53.7137 147.096 51.2587C145.97 48.8002 147.549 46.5674 148.922 44.7868L166.653 21.5706H139.372L128.45 35.8571C126.621 38.2476 125.04 40.3254 125.04 43C125.04 45.6775 126.51 47.6083 128.45 50.1464L131.178 53.7144C133.91 57.2818 136.634 60.8648 140.278 62.6448C143.92 64.4213 148.232 64.4213 154.154 64.4213H165.968C172.796 64.4213 183.027 64.4213 189.859 57.7305C196.677 51.0363 196.677 41.216 196.677 37.6405V26.9302C196.677 23.3547 196.677 13.5384 189.859 6.84356C183.027 0.142578 172.796 0.160255 165.968 0.152776L147.096 0.142578C145.285 0.142578 142.999 0.142578 141.178 1.93341C139.371 3.72151 139.371 5.95359 139.371 7.74102Z" fill="white"/>
<path d="M106.618 21.5712H133.914L101.153 64.4212H73.8643L106.618 21.5712Z" fill="white"/>
<path d="M0.177246 29.1628C0.177246 27.3788 0.177246 25.1467 1.99653 23.3552C3.81097 21.5712 6.09513 21.5712 7.91095 21.5712H53.6308C59.541 21.5712 63.8593 21.5712 67.5034 23.3552C71.1316 25.1467 73.866 28.7182 76.5887 32.2896L79.3225 35.8577C81.2665 38.3916 82.7422 40.3259 82.7422 43.0006C82.7422 45.678 81.1473 47.7523 79.3225 50.1469L68.4089 64.4212H41.1175L58.8517 41.2159C60.2145 39.4284 61.8141 37.2032 60.671 34.7406C59.541 32.2896 56.5821 32.2896 54.309 32.2896H32.9272V85.8574H11.0951V32.2889H0.177246V29.1628Z" fill="white"/>
</g>
<defs>
<clipPath id="clip0">
<rect width="196.5" height="85.7143" fill="white" transform="translate(0.177246 0.142578)"/>
</clipPath>
</defs>
</svg>
