<svg width="207" height="98" viewBox="0 0 207 98" fill="none" xmlns="http://www.w3.org/2000/svg">
<g clip-path="url(#clip0)">
<path fill-rule="evenodd" clip-rule="evenodd" d="M13.7602 12.7276H47.2901L34.4664 0.142822H0.936523V33.048L13.7602 45.6328V12.7276ZM54.2134 12.7276H87.7433V45.6328L100.567 33.048V0.142822H67.0371L54.2134 12.7276ZM87.7433 52.4269V85.332H54.2134L67.0371 97.9168H100.567V65.0116L87.7433 52.4269ZM47.2901 85.332H13.7602V52.4269L0.936523 65.0116V97.9168H34.4664L47.2901 85.332Z" fill="white"/>
<path d="M104.146 0.675049H107.354V1.35383H106.096V5.1235H105.404V1.35383H104.146V0.675049ZM110.235 3.98686L111.738 0.67532H112.508V5.12341H111.816V2.20065L110.486 5.12341H109.984L108.654 2.20065V5.12341H107.962V0.67532H108.732L110.235 3.98686Z" fill="white"/>
<path fill-rule="evenodd" clip-rule="evenodd" d="M133.202 85.7647C135.422 85.7647 137.223 87.7492 137.223 90.194C137.223 92.6387 135.422 94.6233 133.202 94.6233C130.981 94.6233 129.18 92.6387 129.18 90.194C129.18 87.7492 130.981 85.7647 133.202 85.7647ZM133.202 82.3902C137.625 82.3902 141.212 85.885 141.212 90.1941C141.212 94.5031 137.625 97.9978 133.202 97.9978C128.778 97.9978 125.191 94.5031 125.191 90.1941C125.191 85.885 128.778 82.3902 133.202 82.3902ZM151.936 85.7647C153.309 85.7647 154.6 86.3681 155.326 87.5251L157.957 85.0484C156.489 83.4193 154.336 82.3902 151.936 82.3902C147.513 82.3902 143.925 85.885 143.925 90.1941C143.925 94.5031 147.513 97.9978 151.936 97.9978C154.391 97.9978 156.588 96.9204 158.058 95.2252L155.324 92.9277C154.594 94.0479 153.283 94.6233 151.936 94.6233C149.716 94.6233 147.914 92.6387 147.914 90.194C147.914 87.7492 149.716 85.7647 151.936 85.7647ZM178.415 91.2182H189.921C189.965 90.883 189.987 90.5412 189.987 90.1941C189.987 85.885 186.527 82.3902 182.261 82.3902C177.994 82.3902 174.534 85.885 174.534 90.1941C174.534 94.5031 177.994 97.9978 182.261 97.9978C184.694 97.9978 187.492 97.5925 188.908 95.8164L187.149 93.3178C186.266 94.5629 183.932 94.9096 182.442 94.9096C180.473 94.9096 178.825 93.3292 178.415 91.2182H178.415ZM178.503 88.7922C179.025 86.8731 180.592 85.4783 182.442 85.4783C184.292 85.4783 185.859 86.8731 186.381 88.7922H178.503ZM160.381 82.7468H172.764V86.0951H168.485V97.6411H164.661V86.0951H160.381V82.7468ZM196.316 89.9627L191.104 82.7468H195.709L198.828 87.3574L201.948 82.7468H206.553L201.34 89.9627L206.789 97.6411H202.339L198.828 92.6558L195.318 97.6411H190.868L196.316 89.9627ZM198.828 88.0552L198.811 88.0845L198.828 88.0849L198.846 88.0845L198.828 88.0552ZM115.889 80.7905C117.55 80.7905 118.897 82.1121 118.897 83.7419C118.897 85.3717 117.55 86.6934 115.889 86.6934H110.82V80.7905H115.889ZM106.62 77.2856H116.754C120.387 77.2856 123.333 80.1768 123.333 83.7418C123.333 87.3071 120.387 90.1982 116.754 90.1982H110.82V97.6411H106.62V77.2856Z" fill="white"/>
</g>
<defs>
<clipPath id="clip0">
<rect width="205.852" height="97.855" fill="white" transform="translate(0.936523 0.142822)"/>
</clipPath>
</defs>
</svg>
