<svg width="28" height="34" viewBox="0 0 28 34" fill="none" xmlns="http://www.w3.org/2000/svg">
<path d="M23.9998 33.6667H3.99984C2.15889 33.6667 0.666504 32.1743 0.666504 30.3333V3.66666C0.666504 1.82572 2.15889 0.333331 3.99984 0.333331H15.6665C15.6814 0.331395 15.6966 0.331395 15.7115 0.333331H15.7215C15.7372 0.338261 15.7534 0.341611 15.7698 0.343331C15.9168 0.352753 16.0619 0.381328 16.2015 0.428331H16.2265H16.2515H16.2715C16.3023 0.449874 16.3312 0.473839 16.3582 0.499998C16.5397 0.580704 16.7052 0.693639 16.8465 0.833331L26.8465 10.8333C26.9862 10.9746 27.0991 11.1401 27.1798 11.3217C27.1948 11.3583 27.2065 11.3933 27.2182 11.4317L27.2348 11.4783C27.2814 11.6173 27.3088 11.762 27.3165 11.9083C27.318 11.9249 27.3219 11.9412 27.3282 11.9567V11.9667C27.3309 11.9776 27.3326 11.9888 27.3332 12V30.3333C27.3332 31.2174 26.982 32.0652 26.3569 32.6904C25.7317 33.3155 24.8839 33.6667 23.9998 33.6667ZM18.0398 20.3333V28.6667H19.6065V25.2667H22.0398V23.87H19.6065V21.735H22.3332V20.3333H18.0398ZM11.8732 20.3333V28.6667H13.8832C14.7264 28.7081 15.5429 28.3648 16.1032 27.7333C16.678 26.9998 16.966 26.0821 16.9132 25.1517V23.8017C16.9518 22.8811 16.6558 21.9776 16.0798 21.2583C15.5376 20.6411 14.7458 20.3012 13.9248 20.3333H11.8732ZM5.6665 20.3333V28.6667H7.23317V25.735H8.2765C8.9732 25.7736 9.65371 25.5156 10.1498 25.025C10.6233 24.4957 10.8689 23.8009 10.8332 23.0917C10.8641 22.3654 10.6187 21.6543 10.1465 21.1017C9.67937 20.5837 9.00499 20.3018 8.30817 20.3333H5.6665ZM15.6665 3.66666V12H23.9998L15.6665 3.66666ZM13.9098 27.27H13.4398V21.735H14.0098C14.4146 21.7111 14.8038 21.8944 15.0432 22.2217C15.2875 22.7271 15.3922 23.2888 15.3465 23.8483V25.2967C15.3831 25.8296 15.2675 26.3619 15.0132 26.8317C14.74 27.1505 14.3274 27.3145 13.9098 27.27ZM8.30817 24.3333H7.2315V21.735H8.32317C8.5957 21.7379 8.84755 21.8809 8.98984 22.1133C9.1702 22.4109 9.25728 22.7558 9.23984 23.1033C9.26074 23.4275 9.17466 23.7495 8.99484 24.02C8.82908 24.2281 8.57395 24.3445 8.30817 24.3333Z" fill="#67A030"/>
</svg>
