<svg width="21" height="20" viewBox="0 0 21 20" fill="none" xmlns="http://www.w3.org/2000/svg">
<path d="M15.595 19.006H15.567C11.7253 18.9114 8.05928 17.3775 5.29501 14.708C2.62453 11.9462 1.0897 8.28156 0.994892 4.441C0.989235 3.903 1.20047 3.38536 1.58101 3.005L4.29501 0.293C4.68551 -0.0973819 5.31851 -0.0973819 5.70901 0.293L9.70901 4.293C10.0994 4.6835 10.0994 5.3165 9.70901 5.707L8.11301 7.3C8.40902 8.40592 8.95428 9.4294 9.70701 10.292C10.5681 11.045 11.5902 11.5906 12.695 11.887L14.295 10.293C14.6855 9.90262 15.3185 9.90262 15.709 10.293L19.709 14.293C20.0994 14.6835 20.0994 15.3165 19.709 15.707L16.995 18.42C16.625 18.7939 16.1211 19.0048 15.595 19.006ZM5.00001 2.415H4.99501L2.99501 4.419C3.07655 7.73766 4.40133 10.9047 6.70701 13.293C9.09544 15.5979 12.2618 16.9225 15.58 17.005L17.587 15L14.995 12.415L13.702 13.707C13.517 13.894 13.2651 13.9995 13.002 14C12.9318 14 12.8617 13.9927 12.793 13.978C11.1266 13.6094 9.5794 12.8285 8.29301 11.707C7.17146 10.4206 6.39062 8.87337 6.02201 7.207C5.95247 6.87577 6.0552 6.53184 6.29501 6.293L7.58701 5L5.00001 2.415Z" fill="white"/>
</svg>
