<svg width="160" height="32" viewBox="0 0 160 32" fill="none" xmlns="http://www.w3.org/2000/svg">
<g clip-path="url(#clip0)">
<path fill-rule="evenodd" clip-rule="evenodd" d="M84.093 2.66675H75.9067C68.4355 2.66675 66.6665 4.43574 66.6665 11.9069V20.0932C66.6665 27.5644 68.4355 29.3334 75.9067 29.3334H84.093C91.5642 29.3334 93.3332 27.5644 93.3332 20.0932V11.9069C93.3332 4.43574 91.5454 2.66675 84.093 2.66675ZM88.1956 21.6929H86.2572C85.5232 21.6929 85.2974 21.1095 83.9801 19.7733C82.8321 18.663 82.324 18.5124 82.0417 18.5124C81.6465 18.5124 81.5336 18.6253 81.5336 19.1711V20.9213C81.5336 21.3918 81.383 21.674 80.141 21.674C78.0897 21.674 75.8126 20.432 74.213 18.1172C71.8041 14.7298 71.1454 12.1892 71.1454 11.6623C71.1454 11.38 71.2584 11.1165 71.8041 11.1165H73.7425C74.2318 11.1165 74.42 11.3424 74.6082 11.8693C75.5679 14.6357 77.1676 17.0634 77.8262 17.0634C78.0709 17.0634 78.1838 16.9504 78.1838 16.3294V13.4689C78.1085 12.1516 77.4122 12.0387 77.4122 11.5682C77.4122 11.3424 77.6004 11.1165 77.9015 11.1165H80.9502C81.3642 11.1165 81.5148 11.3424 81.5148 11.8316V15.6896C81.5148 16.1036 81.703 16.2541 81.8159 16.2541C82.0605 16.2541 82.2675 16.1036 82.7192 15.6519C84.1118 14.0899 85.1092 11.6811 85.1092 11.6811C85.241 11.3988 85.4668 11.1353 85.9561 11.1353H87.8944C88.4778 11.1353 88.6096 11.4364 88.4778 11.8505C88.2332 12.9796 85.862 16.3294 85.862 16.3294C85.655 16.6682 85.5797 16.8187 85.862 17.1951C86.069 17.4774 86.7465 18.0608 87.1981 18.5877C88.0262 19.5287 88.666 20.3191 88.8354 20.8648C89.0236 21.4106 88.7413 21.6929 88.1956 21.6929Z" fill="white"/>
</g>
<path d="M2.66943 16.0026C2.67098 22.5618 7.44064 28.1467 13.9188 29.1746V19.856H10.5361V16.0026H13.9228V13.0693C13.7714 11.6794 14.2461 10.2941 15.2183 9.28922C16.1904 8.28434 17.5592 7.764 18.9534 7.86931C19.9541 7.88547 20.9524 7.9746 21.9401 8.13598V11.4146H20.2548C19.6746 11.3387 19.0912 11.5303 18.6691 11.9355C18.247 12.3408 18.0318 12.9158 18.0841 13.4986V16.0026H21.7788L21.1881 19.8573H18.0841V29.1746C25.0901 28.0674 30.0029 21.669 29.2634 14.6147C28.524 7.56047 22.3912 2.31988 15.3079 2.68955C8.22458 3.05921 2.67056 8.90972 2.66943 16.0026Z" fill="white"/>
<path fill-rule="evenodd" clip-rule="evenodd" d="M143.819 8.86463C143.479 8.92015 141.016 9.47334 141.016 13.7583C141.016 15.7147 141.506 16.8931 142.07 17.6012C142.343 17.9353 142.687 18.2037 143.078 18.3866C143.468 18.5694 143.895 18.662 144.327 18.6576H145.852V8.85914H143.891C143.867 8.85895 143.843 8.86079 143.819 8.86463Z" fill="white"/>
<path fill-rule="evenodd" clip-rule="evenodd" d="M144.306 20.5685L140.682 28.5723C142.39 29.02 144.171 29.1175 145.918 28.8588V20.5685H144.306ZM144 3C136.821 3 131 8.82051 131 15.9997C131 18.4349 131.683 20.8214 132.973 22.8871C134.262 24.9529 136.106 26.6149 138.294 27.6839L142.354 20.3539C142.354 20.3539 138.494 18.5716 138.494 14.1605C138.494 9.74935 141.57 7.03137 144.152 7.03137H148.206V28.3029C150.771 27.425 152.998 25.7671 154.575 23.5611C156.152 21.3551 157 18.7113 157 15.9997C157 8.82051 151.179 3 144 3Z" fill="white"/>
<defs>
<clipPath id="clip0">
<rect width="26.6667" height="26.6667" fill="white" transform="translate(66.6665 2.66675)"/>
</clipPath>
</defs>
</svg>
